<svg width="18" height="13" viewBox="0 0 18 13" fill="none" xmlns="http://www.w3.org/2000/svg">
<path d="M1 5.91665C0.585786 5.91665 0.25 6.25243 0.25 6.66665C0.25 7.08086 0.585786 7.41665 1 7.41665V5.91665ZM17 7.41665C17.4142 7.41665 17.75 7.08086 17.75 6.66665C17.75 6.25243 17.4142 5.91665 17 5.91665V7.41665ZM1 11.25C0.585786 11.25 0.25 11.5858 0.25 12C0.25 12.4142 0.585786 12.75 1 12.75V11.25ZM17 12.75C17.4142 12.75 17.75 12.4142 17.75 12C17.75 11.5858 17.4142 11.25 17 11.25V12.75ZM1 0.583313C0.585786 0.583313 0.25 0.919099 0.25 1.33331C0.25 1.74753 0.585786 2.08331 1 2.08331V0.583313ZM17 2.08331C17.4142 2.08331 17.75 1.74753 17.75 1.33331C17.75 0.919099 17.4142 0.583313 17 0.583313V2.08331ZM1 7.41665H17V5.91665H1V7.41665ZM1 12.75H17V11.25H1V12.75ZM1 2.08331H17V0.583313H1V2.08331Z" fill="black"/>
</svg>
