<svg width="279" height="79" viewBox="0 0 279 79" fill="none" xmlns="http://www.w3.org/2000/svg">
<g clip-path="url(#clip0_26_1318)">
<path d="M278.2 60.7C278.4 60.6 278.5 60.6 278.7 60.5C278.7 59.8 278.8 59.1 278.8 58.5C278.8 51.8 278.8 45.2 278.8 38.5C278.8 32.8 278.8 27.2 278.8 21.5C278.8 20.8 279 20 278.3 19.2C277.7 19.2 277.1 19.3 276.3 19.3C276.3 20.3 276.2 21.1 276.2 21.9C276.2 31.8 276.2 41.7 276.2 51.6C276.2 52.3 276.4 53 275.8 53.8C273.1 50.8 270.4 48 267.8 45.1C265.2 42.3 262.6 39.5 260 36.6C257.4 33.7 254.8 30.8 252.1 28C249.5 25.2 247 22.2 243.9 19.2C243.8 20.4 243.7 21.1 243.7 21.8C243.7 30.4 243.7 38.9 243.7 47.5C243.7 51.2 243.7 54.9 243.7 58.7C243.7 59.4 243.8 60.2 243.9 61C244.8 60.9 245.4 60.9 246.3 60.8C246.3 59.8 246.3 59 246.3 58.2C246.3 48.1 246.3 38 246.3 27.9C246.3 27.3 246.1 26.6 246.7 25.8C257.2 37.6 267.7 49.2 278.2 60.7ZM159.3 61.1C160 61.2 160.6 61.2 161.3 61.2C168.4 61.2 175.5 61.2 182.5 61.2C183.2 61.2 183.9 61.1 184.7 61C184.7 60.2 184.7 59.5 184.7 58.7C183.8 58.6 182.9 58.5 182.1 58.5C176.3 58.5 170.4 58.5 164.6 58.5C164 58.5 163.4 58.5 162.8 58.5C162 58.5 161.6 58 161.6 57.3C161.6 56.9 161.6 56.5 161.6 56.1C161.6 52.2 161.6 48.3 161.6 44.4C161.6 42 161.7 41.9 164.1 41.9C169.2 41.9 174.2 41.9 179.3 41.9C180 41.9 180.8 41.8 181.6 41.7C181.6 40.8 181.5 40.2 181.5 39.4C180.6 39.3 179.8 39.3 179.1 39.3C174.1 39.3 169.2 39.3 164.2 39.3C163.7 39.3 163.1 39.3 162.6 39.2C162 39.1 161.6 38.8 161.6 38.2C161.6 37.8 161.6 37.4 161.6 37C161.6 32.8 161.6 28.5 161.6 24.3C161.6 21.9 161.7 21.9 164 21.9C170.1 21.9 176.3 21.9 182.4 21.9C183.1 21.9 183.9 21.8 184.7 21.7C184.7 20.9 184.7 20.2 184.7 19.6C183 19.1 160.9 19.1 159.2 19.6C159.1 20 159 20.6 159 21.1C158.6 28.2 158.8 59.3 159.3 61.1ZM126.5 58.4C126.5 57.4 126.4 56.7 126.4 56C126.4 51.2 126.4 46.3 126.4 41.5C126.4 34.9 126.4 28.3 126.4 21.7C126.4 20.9 126.6 20 126 19.3C125.3 19.1 124.6 19 124 19.5C123.7 21.3 123.7 59.4 124.1 61C124.7 61.1 125.3 61.2 125.9 61.2C133.1 61.2 140.3 61.2 147.5 61.2C148.1 61.2 148.7 61.1 149.4 61C149.4 60.2 149.4 59.6 149.4 58.8C148.5 58.7 147.7 58.6 146.9 58.6C141 58.6 135.1 58.6 129.2 58.6C128.4 58.5 127.6 58.4 126.5 58.4ZM202.6 40.3C202.6 42.5 202.6 44.7 202.6 46.8C202.6 47.4 202.6 48.1 202.7 48.7C202.9 50 203.7 51 204.9 51.5C206.8 52.2 208.7 51.9 210.7 51.7C211.4 51.6 211.8 50.9 211.8 50.3C211.7 49.6 211.4 49.2 210.8 49C210.4 48.9 210 48.9 209.6 48.9C208.8 48.9 208.1 48.9 207.3 48.9C206.2 48.8 205.9 48.5 205.8 47.4C205.8 47.1 205.8 46.8 205.8 46.5C205.8 42.4 205.8 38.4 205.8 34.3C205.8 31.8 205.9 31.7 208.4 31.7C209 31.7 209.6 31.7 210.2 31.6C211.3 31.5 211.9 30.9 211.9 30.1C211.9 29.3 211.4 28.6 210.3 28.5C208.8 28.4 207.3 28.4 205.9 28.6C204.2 28.8 203.1 30.1 202.8 31.8C202.7 32.4 202.7 33 202.7 33.6C202.6 35.8 202.6 38 202.6 40.3ZM224.2 40.2C224.2 37.7 224.2 35.1 224.2 32.6C224.2 31 223.6 29.7 222.1 29C220.1 28.1 218.1 28.4 216 28.7C215.3 28.8 214.9 29.5 215 30.2C215.1 30.9 215.4 31.3 216.1 31.5C216.5 31.6 216.9 31.7 217.3 31.7C218 31.7 218.7 31.7 219.4 31.7C220.9 31.8 221.2 32 221.2 33.5C221.2 38 221.2 42.6 221.2 47.1C221.2 48.5 220.9 48.8 219.4 48.9C218.4 48.9 217.4 48.9 216.4 49C215.6 49.1 215.1 49.7 215.1 50.4C215.1 51.1 215.6 51.7 216.4 51.8C216.7 51.9 217 51.9 217.3 51.9C217.9 51.9 218.5 51.9 219.1 51.9C222.9 52.2 224.5 50.2 224.4 46.7C224.1 44.5 224.2 42.4 224.2 40.2ZM210.5 61C210.6 61 210.7 61 210.8 61C211.7 61 212.4 60.5 212.5 59.7C212.6 58.9 212.2 58.3 211.3 58C210.9 57.9 210.5 57.8 210.1 57.7C202.3 55.9 197.5 51.1 195.8 43.3C195.7 42.8 195.6 42.4 195.5 41.9C195.2 41.1 194.6 40.7 193.9 40.9C193.2 41 192.7 41.6 192.7 42.4C192.7 43 192.8 43.6 192.9 44.1C194.4 51 198.4 56 204.7 59.1C206.5 60.2 208.4 60.8 210.5 61ZM234.2 37.6C234.2 37.4 234.2 37.2 234.1 36.9C233.2 28.3 225.2 20.4 216.6 19.4C216.3 19.4 216 19.3 215.7 19.3C214.9 19.4 214.3 19.9 214.2 20.6C214.1 21.3 214.5 21.9 215.3 22.2C215.7 22.3 216.1 22.4 216.5 22.5C224.1 24 229.6 29.5 231 37.1C231.1 37.4 231.1 37.8 231.2 38.1C231.5 39 232.2 39.4 232.9 39.3C233.8 39.2 234.2 38.6 234.2 37.6ZM234.2 43.5C234.3 41.9 233.9 41.2 233.1 41.1C232.3 40.9 231.6 41.4 231.3 42.4C231.2 42.7 231.2 43.1 231.1 43.4C229.7 50.7 224.2 56.2 217 57.8C216.5 57.9 215.9 58 215.5 58.2C214.7 58.5 214.3 59.1 214.4 59.8C214.5 60.5 215.1 61.1 216 61.1C216.6 61.1 217.2 61 217.7 60.9C225.4 59.1 230.6 54.4 233.4 47C233.8 45.6 234 44.3 234.2 43.5ZM192.6 37.2C192.6 38.4 193.1 39.2 193.9 39.3C194.7 39.4 195.3 38.9 195.6 37.8C195.7 37.4 195.8 37 195.9 36.6C197.4 29.3 202.9 23.9 210.3 22.5C210.6 22.4 210.9 22.4 211.2 22.3C212.3 22 212.9 21.3 212.7 20.4C212.5 19.6 211.8 19.2 210.8 19.2C210.3 19.2 209.9 19.3 209.4 19.4C202.6 20.9 197.6 24.8 194.6 31.1C193.4 33.2 192.8 35.2 192.6 37.2ZM90.3 61C91.1 61.1 91.8 61.2 92.5 61.2C99.6 61.2 106.8 61.2 113.9 61.2C114.5 61.2 115.2 61.1 115.8 61C115.8 60.2 115.8 59.5 115.8 58.7C115.1 58.6 114.5 58.5 114 58.5C106.8 58.5 99.5 58.5 92.3 58.5C91.7 58.5 91.1 58.7 90.4 58.8C90.3 59.6 90.3 60.2 90.3 61ZM90.3 21.4C92.1 21.9 114.1 21.8 115.7 21.4C115.7 20.7 115.7 20 115.7 19.2C115 19.2 114.5 19.1 114 19.1C106.8 19.1 99.5 19.1 92.3 19.1C91.7 19.1 91.1 19.2 90.3 19.3C90.3 20.1 90.3 20.7 90.3 21.4ZM90.3 41.8C91 41.9 91.6 42 92.1 42C98.6 42 105.2 42 111.7 42C112.3 42 112.8 41.9 113.4 41.8C113.4 40.9 113.4 40.3 113.4 39.7C111.7 39.2 92 39.2 90.3 39.7C90.3 40.2 90.3 40.9 90.3 41.8Z" fill="url(#paint0_linear_26_1318)"/>
<path d="M278.2 60.7C267.7 49.2 257.2 37.6 246.6 26C246.1 26.8 246.2 27.5 246.2 28.1C246.2 38.2 246.2 48.3 246.2 58.4C246.2 59.2 246.2 60 246.2 61C245.4 61.1 244.7 61.1 243.8 61.2C243.7 60.3 243.6 59.6 243.6 58.9C243.6 55.2 243.6 51.5 243.6 47.7C243.6 39.1 243.6 30.6 243.6 22C243.6 21.3 243.7 20.5 243.8 19.4C246.9 22.4 249.4 25.3 252 28.2C254.7 31 257.3 33.9 259.9 36.8C262.5 39.6 265.1 42.5 267.7 45.3C270.3 48.2 273 51 275.7 54C276.2 53.2 276.1 52.5 276.1 51.8C276.1 41.9 276.1 32 276.1 22.1C276.1 21.3 276.2 20.5 276.2 19.5C277 19.4 277.6 19.4 278.2 19.4C278.9 20.2 278.7 21 278.7 21.7C278.7 27.4 278.7 33 278.7 38.7C278.7 45.4 278.7 52 278.7 58.7C278.7 59.4 278.6 60.1 278.6 60.7C278.5 60.6 278.4 60.6 278.2 60.7Z" fill="url(#paint1_linear_26_1318)"/>
<path d="M159.3 61.1C158.9 59.3 158.6 28.3 159 20.9C159 20.4 159.1 19.9 159.2 19.4C160.9 18.9 183 18.9 184.7 19.4C184.7 20 184.7 20.7 184.7 21.5C183.9 21.6 183.1 21.7 182.4 21.7C176.3 21.7 170.1 21.7 164 21.7C161.7 21.7 161.7 21.8 161.6 24.1C161.6 28.3 161.6 32.6 161.6 36.8C161.6 37.2 161.6 37.6 161.6 38C161.7 38.6 162 39 162.6 39C163.1 39.1 163.7 39.1 164.2 39.1C169.2 39.1 174.1 39.1 179.1 39.1C179.9 39.1 180.6 39.2 181.5 39.2C181.5 40 181.6 40.7 181.6 41.5C180.7 41.6 180 41.7 179.3 41.7C174.2 41.7 169.2 41.7 164.1 41.7C161.7 41.7 161.6 41.7 161.6 44.2C161.6 48.1 161.6 52 161.6 55.9C161.6 56.3 161.6 56.7 161.6 57.1C161.7 57.9 162 58.3 162.8 58.3C163.4 58.3 164 58.3 164.6 58.3C170.4 58.3 176.3 58.3 182.1 58.3C182.9 58.3 183.7 58.4 184.7 58.5C184.7 59.3 184.7 60 184.7 60.8C183.9 60.9 183.2 61 182.5 61C175.4 61 168.3 61 161.3 61C160.6 61.2 160 61.1 159.3 61.1Z" fill="url(#paint2_linear_26_1318)"/>
<path d="M126.5 58.4C127.5 58.5 128.4 58.6 129.2 58.6C135.1 58.6 141 58.6 146.9 58.6C147.7 58.6 148.5 58.7 149.4 58.8C149.4 59.6 149.4 60.2 149.4 61C148.7 61.1 148.1 61.2 147.5 61.2C140.3 61.2 133.1 61.2 125.9 61.2C125.3 61.2 124.6 61.1 124.1 61C123.7 59.4 123.7 21.2 124 19.5C124.6 19 125.3 19.1 126 19.3C126.6 20 126.4 20.9 126.4 21.7C126.4 28.3 126.4 34.9 126.4 41.5C126.4 46.3 126.4 51.2 126.4 56C126.4 56.7 126.5 57.4 126.5 58.4Z" fill="url(#paint3_linear_26_1318)"/>
<path d="M202.6 40.3C202.6 38.1 202.6 35.8 202.6 33.6C202.6 33 202.6 32.4 202.7 31.8C203 30.1 204.1 28.8 205.8 28.6C207.2 28.4 208.7 28.4 210.2 28.5C211.2 28.6 211.8 29.2 211.8 30.1C211.8 30.9 211.2 31.4 210.1 31.6C209.5 31.7 208.9 31.6 208.3 31.7C205.8 31.7 205.7 31.8 205.7 34.3C205.7 38.4 205.7 42.4 205.7 46.5C205.7 46.8 205.7 47.1 205.7 47.4C205.8 48.6 206.1 48.9 207.2 48.9C208 49 208.7 48.9 209.5 48.9C209.9 48.9 210.3 48.9 210.7 49C211.3 49.2 211.7 49.6 211.7 50.3C211.8 50.9 211.3 51.6 210.6 51.7C208.7 51.9 206.7 52.2 204.8 51.5C203.6 51.1 202.8 50 202.6 48.7C202.5 48.1 202.5 47.4 202.5 46.8C202.6 44.6 202.6 42.4 202.6 40.3Z" fill="url(#paint4_linear_26_1318)"/>
<path d="M224.2 40.2C224.2 42.4 224.1 44.6 224.2 46.7C224.4 50.1 222.7 52.1 218.9 51.9C218.3 51.9 217.7 51.9 217.1 51.9C216.8 51.9 216.5 51.9 216.2 51.8C215.4 51.6 214.9 51.1 214.9 50.4C214.9 49.7 215.4 49.1 216.2 49C217.2 48.9 218.2 48.9 219.2 48.9C220.7 48.8 221 48.6 221 47.1C221 42.6 221 38 221 33.5C221 32 220.7 31.8 219.2 31.7C218.5 31.7 217.8 31.7 217.1 31.7C216.7 31.7 216.3 31.6 215.9 31.5C215.3 31.3 214.9 30.9 214.8 30.2C214.7 29.6 215.1 28.9 215.8 28.7C217.8 28.4 219.9 28.1 221.9 29C223.4 29.7 224 31 224 32.6C224.2 35.1 224.2 37.6 224.2 40.2Z" fill="url(#paint5_linear_26_1318)"/>
<path d="M210.5 61C208.4 60.7 206.4 60.2 204.6 59.2C198.2 56.1 194.3 51.1 192.8 44.2C192.7 43.6 192.6 43 192.6 42.5C192.6 41.7 193.1 41.1 193.8 41C194.5 40.9 195.1 41.2 195.4 42C195.6 42.4 195.6 42.9 195.7 43.4C197.5 51.2 202.2 56 210 57.8C210.4 57.9 210.8 57.9 211.2 58.1C212.1 58.4 212.6 59 212.4 59.8C212.3 60.5 211.6 61 210.7 61.1C210.7 61 210.6 61 210.5 61Z" fill="url(#paint6_linear_26_1318)"/>
<path d="M234.2 37.6C234.2 38.6 233.7 39.2 233 39.4C232.3 39.5 231.6 39.1 231.3 38.2C231.2 37.9 231.1 37.5 231.1 37.2C229.6 29.6 224.2 24.1 216.6 22.6C216.2 22.5 215.8 22.5 215.4 22.3C214.6 22 214.2 21.3 214.3 20.7C214.4 20 215 19.5 215.8 19.4C216.1 19.4 216.4 19.4 216.7 19.5C225.3 20.5 233.2 28.5 234.2 37C234.2 37.2 234.2 37.4 234.2 37.6Z" fill="url(#paint7_linear_26_1318)"/>
<path d="M234.2 43.5C234 44.3 233.8 45.7 233.3 46.9C230.6 54.3 225.4 59 217.6 60.8C217 60.9 216.4 61 215.9 61C215 61 214.3 60.4 214.3 59.7C214.2 59 214.6 58.4 215.4 58.1C215.9 57.9 216.4 57.8 216.9 57.7C224.2 56.2 229.6 50.6 231 43.3C231.1 43 231.1 42.6 231.2 42.3C231.5 41.3 232.2 40.8 233 41C233.9 41.2 234.3 41.9 234.2 43.5Z" fill="url(#paint8_linear_26_1318)"/>
<path d="M192.6 37.2C192.9 35.2 193.4 33.2 194.4 31.2C197.5 24.9 202.4 21 209.2 19.5C209.7 19.4 210.1 19.3 210.6 19.3C211.6 19.2 212.4 19.7 212.5 20.5C212.7 21.4 212.1 22.1 211 22.4C210.7 22.5 210.4 22.5 210.1 22.6C202.8 24 197.3 29.4 195.7 36.7C195.6 37.1 195.6 37.5 195.4 37.9C195.1 39 194.5 39.5 193.7 39.4C193 39.3 192.5 38.5 192.6 37.2Z" fill="url(#paint9_linear_26_1318)"/>
<path d="M90.3 61C90.3 60.2 90.3 59.6 90.3 58.8C91 58.7 91.6 58.5 92.2 58.5C99.4 58.5 106.7 58.5 113.9 58.5C114.5 58.5 115 58.6 115.7 58.7C115.7 59.5 115.7 60.2 115.7 61C115 61.1 114.4 61.2 113.8 61.2C106.7 61.2 99.5 61.2 92.4 61.2C91.8 61.2 91.1 61.1 90.3 61Z" fill="url(#paint10_linear_26_1318)"/>
<path d="M90.3 21.4C90.3 20.7 90.3 20.1 90.3 19.3C91 19.2 91.6 19.1 92.3 19.1C99.5 19.1 106.8 19.1 114 19.1C114.5 19.1 115 19.2 115.7 19.2C115.7 20 115.7 20.7 115.7 21.4C114.2 21.8 92.1 21.9 90.3 21.4Z" fill="url(#paint11_linear_26_1318)"/>
<path d="M90.3 41.8C90.3 40.9 90.3 40.3 90.3 39.6C91.9 39.1 111.7 39.1 113.4 39.6C113.4 40.2 113.4 40.9 113.4 41.7C112.8 41.8 112.2 41.9 111.7 41.9C105.2 41.9 98.6 41.9 92.1 41.9C91.6 41.9 91.1 41.8 90.3 41.8Z" fill="url(#paint12_linear_26_1318)"/>
<path d="M35 0C46.7 6.8 58.3 13.5 70 20.2C70 30.7 70 41.1 70 51.7C64.9 54.7 59.7 57.6 54.5 60.7C54.5 63.7 54.5 66.7 54.5 69.7C49.4 72.7 44.4 75.5 39.2 78.5C39.2 75.5 39.2 72.7 39.2 69.7C41.6 68.3 44.2 66.8 46.8 65.2C46.8 56.2 46.8 47.2 46.8 38C44.1 39.6 41.5 41 38.9 42.5C38.9 48.5 38.9 54.4 38.9 60.5C37.6 61.3 36.4 62 35.1 62.8C33.9 62.1 32.6 61.4 31.3 60.6C31.3 54.6 31.3 48.7 31.3 42.6C28.7 41.1 26.2 39.6 23.7 38.2C23.6 38.3 23.5 38.3 23.5 38.3L23.4 38.4C23.4 46.8 23.3 55.3 23.3 63.7C23.3 64.2 23.4 64.7 23.4 65.2C26 66.7 28.5 68.2 31.1 69.7C31.1 72.6 31.1 75.4 31.1 78.5C25.9 75.5 20.9 72.6 15.8 69.7C15.8 66.7 15.8 63.8 15.8 60.7C10.6 57.7 5.4 54.7 0.199997 51.6C0.199997 41.1 0.199997 30.7 0.199997 20.1C11.6 13.5 23.3 6.8 35 0ZM35 36.1C42.9 31.5 50.6 27.1 58.6 22.4C55.8 20.8 53.2 19.3 50.6 17.8C45.3 20.8 40.1 23.8 35 26.8C29.7 23.8 24.6 20.8 19.4 17.8C16.8 19.3 14.2 20.8 11.4 22.4C19.4 27.1 27.2 31.5 35 36.1ZM62.4 29C59.6 30.6 57 32.1 54.5 33.5C54.5 39.6 54.5 45.6 54.5 51.8C57.3 50.2 59.9 48.7 62.4 47.2C62.4 41.2 62.4 35.3 62.4 29ZM15.5 33.6C12.9 32.1 10.4 30.6 7.6 29.1C7.6 35.4 7.6 41.4 7.6 47.4C10.2 48.9 12.7 50.4 15.5 51.9C15.5 45.6 15.5 39.7 15.5 33.6ZM35 8.8C32.3 10.4 29.8 11.8 27 13.4C29.9 15 32.4 16.5 35 18C37.7 16.5 40.2 15 43 13.4C40.2 11.8 37.6 10.3 35 8.8Z" fill="url(#paint13_linear_26_1318)"/>
</g>
<defs>
<linearGradient id="paint0_linear_26_1318" x1="184.556" y1="19.0987" x2="184.556" y2="61.2154" gradientUnits="userSpaceOnUse">
<stop stop-color="#EEC77F"/>
<stop offset="0.2215" stop-color="#E1B96F"/>
<stop offset="0.6578" stop-color="#C39849"/>
<stop offset="1" stop-color="#AA7D2C"/>
</linearGradient>
<linearGradient id="paint1_linear_26_1318" x1="261.197" y1="19.1953" x2="261.197" y2="61.1473" gradientUnits="userSpaceOnUse">
<stop stop-color="#EEC77F"/>
<stop offset="0.2215" stop-color="#E1B96F"/>
<stop offset="0.6578" stop-color="#C39849"/>
<stop offset="1" stop-color="#AA7D2C"/>
</linearGradient>
<linearGradient id="paint2_linear_26_1318" x1="171.725" y1="19.0987" x2="171.725" y2="61.2154" gradientUnits="userSpaceOnUse">
<stop stop-color="#EEC77F"/>
<stop offset="0.2215" stop-color="#E1B96F"/>
<stop offset="0.6578" stop-color="#C39849"/>
<stop offset="1" stop-color="#AA7D2C"/>
</linearGradient>
<linearGradient id="paint3_linear_26_1318" x1="136.6" y1="19.131" x2="136.6" y2="61.2101" gradientUnits="userSpaceOnUse">
<stop stop-color="#EEC77F"/>
<stop offset="0.2215" stop-color="#E1B96F"/>
<stop offset="0.6578" stop-color="#C39849"/>
<stop offset="1" stop-color="#AA7D2C"/>
</linearGradient>
<linearGradient id="paint4_linear_26_1318" x1="207.173" y1="28.4665" x2="207.173" y2="51.9369" gradientUnits="userSpaceOnUse">
<stop stop-color="#EEC77F"/>
<stop offset="0.2215" stop-color="#E1B96F"/>
<stop offset="0.6578" stop-color="#C39849"/>
<stop offset="1" stop-color="#AA7D2C"/>
</linearGradient>
<linearGradient id="paint5_linear_26_1318" x1="219.561" y1="28.3542" x2="219.561" y2="51.8947" gradientUnits="userSpaceOnUse">
<stop stop-color="#EEC77F"/>
<stop offset="0.2215" stop-color="#E1B96F"/>
<stop offset="0.6578" stop-color="#C39849"/>
<stop offset="1" stop-color="#AA7D2C"/>
</linearGradient>
<linearGradient id="paint6_linear_26_1318" x1="202.56" y1="41.0031" x2="202.56" y2="61.039" gradientUnits="userSpaceOnUse">
<stop stop-color="#EEC77F"/>
<stop offset="0.2215" stop-color="#E1B96F"/>
<stop offset="0.6578" stop-color="#C39849"/>
<stop offset="1" stop-color="#AA7D2C"/>
</linearGradient>
<linearGradient id="paint7_linear_26_1318" x1="224.246" y1="19.3366" x2="224.246" y2="39.3781" gradientUnits="userSpaceOnUse">
<stop stop-color="#EEC77F"/>
<stop offset="0.2215" stop-color="#E1B96F"/>
<stop offset="0.6578" stop-color="#C39849"/>
<stop offset="1" stop-color="#AA7D2C"/>
</linearGradient>
<linearGradient id="paint8_linear_26_1318" x1="224.228" y1="41.0026" x2="224.228" y2="61.019" gradientUnits="userSpaceOnUse">
<stop stop-color="#EEC77F"/>
<stop offset="0.2215" stop-color="#E1B96F"/>
<stop offset="0.6578" stop-color="#C39849"/>
<stop offset="1" stop-color="#AA7D2C"/>
</linearGradient>
<linearGradient id="paint9_linear_26_1318" x1="202.56" y1="19.3358" x2="202.56" y2="39.3582" gradientUnits="userSpaceOnUse">
<stop stop-color="#EEC77F"/>
<stop offset="0.2215" stop-color="#E1B96F"/>
<stop offset="0.6578" stop-color="#C39849"/>
<stop offset="1" stop-color="#AA7D2C"/>
</linearGradient>
<linearGradient id="paint10_linear_26_1318" x1="103.056" y1="58.5428" x2="103.056" y2="61.2136" gradientUnits="userSpaceOnUse">
<stop stop-color="#EEC77F"/>
<stop offset="0.2215" stop-color="#E1B96F"/>
<stop offset="0.6578" stop-color="#C39849"/>
<stop offset="1" stop-color="#AA7D2C"/>
</linearGradient>
<linearGradient id="paint11_linear_26_1318" x1="103.035" y1="19.1066" x2="103.035" y2="21.7398" gradientUnits="userSpaceOnUse">
<stop stop-color="#EEC77F"/>
<stop offset="0.2215" stop-color="#E1B96F"/>
<stop offset="0.6578" stop-color="#C39849"/>
<stop offset="1" stop-color="#AA7D2C"/>
</linearGradient>
<linearGradient id="paint12_linear_26_1318" x1="101.886" y1="39.2196" x2="101.886" y2="41.9138" gradientUnits="userSpaceOnUse">
<stop stop-color="#EEC77F"/>
<stop offset="0.2215" stop-color="#E1B96F"/>
<stop offset="0.6578" stop-color="#C39849"/>
<stop offset="1" stop-color="#AA7D2C"/>
</linearGradient>
<linearGradient id="paint13_linear_26_1318" x1="-3.06755e-06" y1="39.2819" x2="69.967" y2="39.2819" gradientUnits="userSpaceOnUse">
<stop stop-color="#EEC77F"/>
<stop offset="0.2215" stop-color="#E1B96F"/>
<stop offset="0.6578" stop-color="#C39849"/>
<stop offset="1" stop-color="#AA7D2C"/>
</linearGradient>
<clipPath id="clip0_26_1318">
<rect width="278.8" height="78.6" fill="white"/>
</clipPath>
</defs>
</svg>
