<svg width="22" height="16" viewBox="0 0 22 16" fill="none" xmlns="http://www.w3.org/2000/svg">
<path d="M9.18399 1.75892C9.48394 1.47326 9.49552 0.998527 9.20985 0.698579C8.92419 0.398631 8.44945 0.387052 8.14951 0.672717L9.18399 1.75892ZM1.14951 7.33938C0.849559 7.62505 0.83798 8.09978 1.12364 8.39973C1.40931 8.69968 1.88404 8.71125 2.18399 8.42559L1.14951 7.33938ZM2.18399 7.33938C1.88404 7.05372 1.40931 7.0653 1.12364 7.36525C0.83798 7.66519 0.849559 8.13993 1.14951 8.42559L2.18399 7.33938ZM8.14951 15.0923C8.44945 15.3779 8.92419 15.3663 9.20985 15.0664C9.49552 14.7664 9.48394 14.2917 9.18399 14.0061L8.14951 15.0923ZM1.66675 7.13249C1.25253 7.13249 0.916748 7.46827 0.916748 7.88249C0.916748 8.2967 1.25253 8.63249 1.66675 8.63249V7.13249ZM20.3334 8.63249C20.7476 8.63249 21.0834 8.2967 21.0834 7.88249C21.0834 7.46827 20.7476 7.13249 20.3334 7.13249V8.63249ZM8.14951 0.672717L1.14951 7.33938L2.18399 8.42559L9.18399 1.75892L8.14951 0.672717ZM1.14951 8.42559L8.14951 15.0923L9.18399 14.0061L2.18399 7.33938L1.14951 8.42559ZM1.66675 8.63249H20.3334V7.13249H1.66675V8.63249Z" fill="black"/>
</svg>
