<svg width="140" height="29" viewBox="0 0 140 29" fill="none" xmlns="http://www.w3.org/2000/svg">
<mask id="path-1-inside-1_45_7309" fill="white">
<path d="M14.4825 21.7437L19.9988 25.2387C20.704 25.6854 21.5794 25.021 21.3702 24.1979L19.7764 17.9282C19.7315 17.7536 19.7368 17.5699 19.7917 17.3981C19.8466 17.2264 19.9489 17.0736 20.0868 16.9574L25.0335 12.8402C25.6835 12.2992 25.348 11.2205 24.5129 11.1663L18.0528 10.747C17.8788 10.7346 17.7119 10.673 17.5716 10.5694C17.4312 10.4658 17.3232 10.3244 17.2601 10.1618L14.8507 4.09442C14.7852 3.92181 14.6688 3.77321 14.5168 3.66835C14.3649 3.56348 14.1846 3.50732 14 3.50732C13.8154 3.50732 13.6351 3.56348 13.4832 3.66835C13.3312 3.77321 13.2148 3.92181 13.1493 4.09442L10.74 10.1618C10.6768 10.3244 10.5688 10.4658 10.4285 10.5694C10.2881 10.673 10.1212 10.7346 9.94721 10.747L3.4871 11.1663C2.65201 11.2205 2.31653 12.2992 2.96651 12.8402L7.91325 16.9574C8.0511 17.0736 8.15336 17.2264 8.20827 17.3981C8.26317 17.5699 8.26849 17.7536 8.2236 17.9282L6.74553 23.7426C6.49444 24.7303 7.54501 25.5277 8.39117 24.9916L13.5175 21.7437C13.6617 21.6519 13.8291 21.6032 14 21.6032C14.1709 21.6032 14.3383 21.6519 14.4825 21.7437Z"/>
</mask>
<path d="M14.4825 21.7437L19.9988 25.2387C20.704 25.6854 21.5794 25.021 21.3702 24.1979L19.7764 17.9282C19.7315 17.7536 19.7368 17.5699 19.7917 17.3981C19.8466 17.2264 19.9489 17.0736 20.0868 16.9574L25.0335 12.8402C25.6835 12.2992 25.348 11.2205 24.5129 11.1663L18.0528 10.747C17.8788 10.7346 17.7119 10.673 17.5716 10.5694C17.4312 10.4658 17.3232 10.3244 17.2601 10.1618L14.8507 4.09442C14.7852 3.92181 14.6688 3.77321 14.5168 3.66835C14.3649 3.56348 14.1846 3.50732 14 3.50732C13.8154 3.50732 13.6351 3.56348 13.4832 3.66835C13.3312 3.77321 13.2148 3.92181 13.1493 4.09442L10.74 10.1618C10.6768 10.3244 10.5688 10.4658 10.4285 10.5694C10.2881 10.673 10.1212 10.7346 9.94721 10.747L3.4871 11.1663C2.65201 11.2205 2.31653 12.2992 2.96651 12.8402L7.91325 16.9574C8.0511 17.0736 8.15336 17.2264 8.20827 17.3981C8.26317 17.5699 8.26849 17.7536 8.2236 17.9282L6.74553 23.7426C6.49444 24.7303 7.54501 25.5277 8.39117 24.9916L13.5175 21.7437C13.6617 21.6519 13.8291 21.6032 14 21.6032C14.1709 21.6032 14.3383 21.6519 14.4825 21.7437Z" fill="#F9DD74"/>
<path d="M19.9988 25.2387L14.647 33.686H14.647L19.9988 25.2387ZM21.3702 24.1979L11.6785 26.6616V26.6616L21.3702 24.1979ZM19.7764 17.9282L29.4681 15.4645C29.466 15.456 29.4638 15.4475 29.4616 15.439L19.7764 17.9282ZM20.0868 16.9574L13.6895 9.27137C13.6735 9.28467 13.6576 9.29802 13.6417 9.31142L20.0868 16.9574ZM25.0335 12.8402L31.4307 20.5262L31.4307 20.5262L25.0335 12.8402ZM24.5129 11.1663L25.1605 1.18726L25.1605 1.18726L24.5129 11.1663ZM18.0528 10.747L17.3402 20.7216C17.3618 20.7231 17.3835 20.7246 17.4052 20.726L18.0528 10.747ZM17.2601 10.1618L26.5823 6.54308C26.573 6.51906 26.5636 6.49507 26.5541 6.47112L17.2601 10.1618ZM14.8507 4.09442L5.50108 7.6419C5.51924 7.68977 5.53778 7.7375 5.55667 7.78509L14.8507 4.09442ZM14 3.50732V13.5073V3.50732ZM13.1493 4.09442L22.4433 7.78509C22.4622 7.7375 22.4808 7.68977 22.4989 7.6419L13.1493 4.09442ZM10.74 10.1618L1.44592 6.47112C1.43641 6.49507 1.427 6.51906 1.41767 6.54308L10.74 10.1618ZM9.94721 10.747L10.5949 20.726C10.6165 20.7246 10.6382 20.7231 10.6598 20.7216L9.94721 10.747ZM3.4871 11.1663L2.83946 1.18726L2.83945 1.18726L3.4871 11.1663ZM2.96651 12.8402L-3.43073 20.5262L-3.43072 20.5262L2.96651 12.8402ZM7.91325 16.9574L14.3583 9.31142C14.3424 9.29802 14.3265 9.28467 14.3105 9.27137L7.91325 16.9574ZM8.2236 17.9282L-1.46162 15.439C-1.4638 15.4475 -1.46598 15.456 -1.46815 15.4645L8.2236 17.9282ZM6.74553 23.7426L16.4373 26.2064L16.4373 26.2064L6.74553 23.7426ZM8.39117 24.9916L13.7431 33.4389H13.7431L8.39117 24.9916ZM13.5175 21.7437L18.8694 30.191C18.8755 30.1872 18.8815 30.1834 18.8875 30.1795L13.5175 21.7437ZM14 21.6032V31.6032V21.6032ZM14.4825 21.7437L9.11249 30.1795C9.11852 30.1834 9.12455 30.1872 9.13058 30.191L14.4825 21.7437ZM9.13058 30.191L14.647 33.686L25.3507 16.7913L19.8343 13.2964L9.13058 30.191ZM14.647 33.686C23.652 39.3912 33.3062 30.5624 31.062 21.7341L11.6785 26.6616C9.85269 19.4795 17.756 11.9796 25.3507 16.7913L14.647 33.686ZM31.062 21.7341L29.4681 15.4645L10.0847 20.392L11.6785 26.6616L31.062 21.7341ZM29.4616 15.439C29.8853 17.0874 29.8351 18.822 29.3168 20.4432L10.2666 14.353C9.63854 16.3177 9.57773 18.4198 10.0912 20.4175L29.4616 15.439ZM29.3168 20.4432C28.7985 22.0645 27.8332 23.5065 26.5318 24.6034L13.6417 9.31142C12.0646 10.6408 10.8948 12.3883 10.2666 14.353L29.3168 20.4432ZM26.484 24.6435L31.4307 20.5262L18.6363 5.15412L13.6895 9.27137L26.484 24.6435ZM31.4307 20.5262C38.6621 14.5074 35.4847 1.85731 25.1605 1.18726L23.8653 21.1453C15.2113 20.5836 12.7049 10.0909 18.6363 5.15412L31.4307 20.5262ZM25.1605 1.18726L18.7004 0.767999L17.4052 20.726L23.8653 21.1453L25.1605 1.18726ZM18.7654 0.772429C20.4812 0.895012 22.1269 1.50249 23.5108 2.52412L11.6324 18.6146C13.2969 19.8434 15.2764 20.5741 17.3402 20.7216L18.7654 0.772429ZM23.5108 2.52412C24.8946 3.54574 25.9599 4.93948 26.5823 6.54308L7.93777 13.7805C8.6865 15.7093 9.96777 17.3858 11.6324 18.6146L23.5108 2.52412ZM26.5541 6.47112L24.1447 0.403763L5.55667 7.78509L7.96602 13.8524L26.5541 6.47112ZM24.2003 0.546954C23.415 -1.52271 22.0187 -3.30455 20.1968 -4.56192L8.83679 11.8986C7.31877 10.851 6.15538 9.36634 5.50108 7.6419L24.2003 0.546954ZM20.1968 -4.56192C18.3749 -5.81929 16.2136 -6.49268 14 -6.49268L14 13.5073C12.1556 13.5073 10.3548 12.9463 8.83679 11.8986L20.1968 -4.56192ZM14 -6.49268C11.7864 -6.49268 9.62507 -5.81929 7.80317 -4.56192L19.1632 11.8986C17.6452 12.9463 15.8444 13.5073 14 13.5073V-6.49268ZM7.80317 -4.56192C5.98128 -3.30457 4.58497 -1.52274 3.79968 0.546954L22.4989 7.6419C21.8446 9.36636 20.6812 10.851 19.1632 11.8986L7.80317 -4.56192ZM3.85527 0.403763L1.44592 6.47112L20.034 13.8524L22.4433 7.78509L3.85527 0.403763ZM1.41767 6.54308C2.04014 4.93951 3.10534 3.54576 4.48925 2.52412L16.3677 18.6146C18.0323 17.3857 19.3135 15.7093 20.0622 13.7805L1.41767 6.54308ZM4.48925 2.52412C5.87317 1.50248 7.51882 0.895011 9.23459 0.772429L10.6598 20.7216C12.7236 20.5741 14.703 19.8435 16.3677 18.6146L4.48925 2.52412ZM9.29957 0.767999L2.83946 1.18726L4.13474 21.1453L10.5949 20.726L9.29957 0.767999ZM2.83945 1.18726C-7.48474 1.85731 -10.6621 14.5074 -3.43073 20.5262L9.36375 5.15412C15.2951 10.0909 12.7888 20.5836 4.13474 21.1453L2.83945 1.18726ZM-3.43072 20.5262L1.51601 24.6435L14.3105 9.27137L9.36374 5.15412L-3.43072 20.5262ZM1.4682 24.6034C0.166841 23.5065 -0.798522 22.0645 -1.31682 20.4432L17.7334 14.353C17.1052 12.3883 15.9354 10.6408 14.3583 9.31142L1.4682 24.6034ZM-1.31682 20.4432C-1.83511 18.822 -1.88531 17.0874 -1.46162 15.439L17.9088 20.4175C18.4223 18.4198 18.3615 16.3177 17.7334 14.353L-1.31682 20.4432ZM-1.46815 15.4645L-2.94622 21.2789L16.4373 26.2064L17.9154 20.392L-1.46815 15.4645ZM-2.94622 21.2789C-5.23231 30.2718 4.59704 39.2334 13.7431 33.4389L3.03929 16.5442C10.493 11.8219 18.2212 19.1889 16.4373 26.2064L-2.94622 21.2789ZM13.7431 33.4389L18.8694 30.191L8.16566 13.2964L3.03929 16.5442L13.7431 33.4389ZM18.8875 30.1795C17.4269 31.1093 15.7314 31.6032 14 31.6032L14 11.6032C11.9267 11.6032 9.89652 12.1945 8.14757 13.3079L18.8875 30.1795ZM14 31.6032C12.2686 31.6032 10.5731 31.1093 9.11249 30.1795L19.8524 13.3079C18.1035 12.1945 16.0733 11.6032 14 11.6032L14 31.6032Z" fill="#F9DD74" mask="url(#path-1-inside-1_45_7309)"/>
<mask id="path-3-inside-2_45_7309" fill="white">
<path d="M42.4825 21.7437L47.9988 25.2387C48.704 25.6854 49.5794 25.021 49.3702 24.1979L47.7764 17.9282C47.7315 17.7536 47.7368 17.5699 47.7917 17.3981C47.8466 17.2264 47.9489 17.0736 48.0868 16.9574L53.0335 12.8402C53.6835 12.2992 53.348 11.2205 52.5129 11.1663L46.0528 10.747C45.8788 10.7346 45.7119 10.673 45.5716 10.5694C45.4312 10.4658 45.3232 10.3244 45.2601 10.1618L42.8507 4.09442C42.7852 3.92181 42.6688 3.77321 42.5168 3.66835C42.3649 3.56348 42.1846 3.50732 42 3.50732C41.8154 3.50732 41.6351 3.56348 41.4832 3.66835C41.3312 3.77321 41.2148 3.92181 41.1493 4.09442L38.74 10.1618C38.6768 10.3244 38.5688 10.4658 38.4285 10.5694C38.2881 10.673 38.1212 10.7346 37.9472 10.747L31.4871 11.1663C30.652 11.2205 30.3165 12.2992 30.9665 12.8402L35.9132 16.9574C36.0511 17.0736 36.1534 17.2264 36.2083 17.3981C36.2632 17.5699 36.2685 17.7536 36.2236 17.9282L34.7455 23.7426C34.4944 24.7303 35.545 25.5277 36.3912 24.9916L41.5175 21.7437C41.6617 21.6519 41.8291 21.6032 42 21.6032C42.1709 21.6032 42.3383 21.6519 42.4825 21.7437Z"/>
</mask>
<path d="M42.4825 21.7437L47.9988 25.2387C48.704 25.6854 49.5794 25.021 49.3702 24.1979L47.7764 17.9282C47.7315 17.7536 47.7368 17.5699 47.7917 17.3981C47.8466 17.2264 47.9489 17.0736 48.0868 16.9574L53.0335 12.8402C53.6835 12.2992 53.348 11.2205 52.5129 11.1663L46.0528 10.747C45.8788 10.7346 45.7119 10.673 45.5716 10.5694C45.4312 10.4658 45.3232 10.3244 45.2601 10.1618L42.8507 4.09442C42.7852 3.92181 42.6688 3.77321 42.5168 3.66835C42.3649 3.56348 42.1846 3.50732 42 3.50732C41.8154 3.50732 41.6351 3.56348 41.4832 3.66835C41.3312 3.77321 41.2148 3.92181 41.1493 4.09442L38.74 10.1618C38.6768 10.3244 38.5688 10.4658 38.4285 10.5694C38.2881 10.673 38.1212 10.7346 37.9472 10.747L31.4871 11.1663C30.652 11.2205 30.3165 12.2992 30.9665 12.8402L35.9132 16.9574C36.0511 17.0736 36.1534 17.2264 36.2083 17.3981C36.2632 17.5699 36.2685 17.7536 36.2236 17.9282L34.7455 23.7426C34.4944 24.7303 35.545 25.5277 36.3912 24.9916L41.5175 21.7437C41.6617 21.6519 41.8291 21.6032 42 21.6032C42.1709 21.6032 42.3383 21.6519 42.4825 21.7437Z" fill="#F9DD74"/>
<path d="M47.9988 25.2387L42.647 33.686H42.647L47.9988 25.2387ZM49.3702 24.1979L39.6785 26.6616V26.6616L49.3702 24.1979ZM47.7764 17.9282L57.4681 15.4645C57.466 15.456 57.4638 15.4475 57.4616 15.439L47.7764 17.9282ZM48.0868 16.9574L41.6895 9.27137C41.6735 9.28467 41.6576 9.29802 41.6417 9.31142L48.0868 16.9574ZM53.0335 12.8402L59.4307 20.5262L59.4307 20.5262L53.0335 12.8402ZM52.5129 11.1663L53.1605 1.18726L53.1605 1.18726L52.5129 11.1663ZM46.0528 10.747L45.3402 20.7216C45.3618 20.7231 45.3835 20.7246 45.4052 20.726L46.0528 10.747ZM45.2601 10.1618L54.5823 6.54308C54.573 6.51906 54.5636 6.49507 54.5541 6.47112L45.2601 10.1618ZM42.8507 4.09442L33.5011 7.6419C33.5192 7.68977 33.5378 7.7375 33.5567 7.78509L42.8507 4.09442ZM42 3.50732V13.5073V3.50732ZM41.1493 4.09442L50.4433 7.78509C50.4622 7.7375 50.4808 7.68977 50.4989 7.6419L41.1493 4.09442ZM38.74 10.1618L29.4459 6.47112C29.4364 6.49507 29.427 6.51906 29.4177 6.54308L38.74 10.1618ZM37.9472 10.747L38.5949 20.726C38.6165 20.7246 38.6382 20.7231 38.6598 20.7216L37.9472 10.747ZM31.4871 11.1663L30.8395 1.18726L30.8395 1.18726L31.4871 11.1663ZM30.9665 12.8402L24.5693 20.5262L24.5693 20.5262L30.9665 12.8402ZM35.9132 16.9574L42.3583 9.31142C42.3424 9.29802 42.3265 9.28467 42.3105 9.27137L35.9132 16.9574ZM36.2236 17.9282L26.5384 15.439C26.5362 15.4475 26.534 15.456 26.5319 15.4645L36.2236 17.9282ZM34.7455 23.7426L44.4373 26.2064L44.4373 26.2064L34.7455 23.7426ZM36.3912 24.9916L41.7431 33.4389H41.7431L36.3912 24.9916ZM41.5175 21.7437L46.8694 30.191C46.8755 30.1872 46.8815 30.1834 46.8875 30.1795L41.5175 21.7437ZM42 21.6032V31.6032V21.6032ZM42.4825 21.7437L37.1125 30.1795C37.1185 30.1834 37.1245 30.1872 37.1306 30.191L42.4825 21.7437ZM37.1306 30.191L42.647 33.686L53.3507 16.7913L47.8343 13.2964L37.1306 30.191ZM42.647 33.686C51.652 39.3912 61.3062 30.5624 59.062 21.7341L39.6785 26.6616C37.8527 19.4795 45.756 11.9796 53.3507 16.7913L42.647 33.686ZM59.062 21.7341L57.4681 15.4645L38.0847 20.392L39.6785 26.6616L59.062 21.7341ZM57.4616 15.439C57.8853 17.0874 57.8351 18.822 57.3168 20.4432L38.2666 14.353C37.6385 16.3177 37.5777 18.4198 38.0912 20.4175L57.4616 15.439ZM57.3168 20.4432C56.7985 22.0645 55.8332 23.5065 54.5318 24.6034L41.6417 9.31142C40.0646 10.6408 38.8948 12.3883 38.2666 14.353L57.3168 20.4432ZM54.484 24.6435L59.4307 20.5262L46.6363 5.15412L41.6895 9.27137L54.484 24.6435ZM59.4307 20.5262C66.6621 14.5074 63.4847 1.85731 53.1605 1.18726L51.8653 21.1453C43.2113 20.5836 40.7049 10.0909 46.6363 5.15412L59.4307 20.5262ZM53.1605 1.18726L46.7004 0.767999L45.4052 20.726L51.8653 21.1453L53.1605 1.18726ZM46.7654 0.772429C48.4812 0.895012 50.1269 1.50249 51.5108 2.52412L39.6324 18.6146C41.2969 19.8434 43.2764 20.5741 45.3402 20.7216L46.7654 0.772429ZM51.5108 2.52412C52.8946 3.54574 53.9599 4.93948 54.5823 6.54308L35.9378 13.7805C36.6865 15.7093 37.9678 17.3858 39.6324 18.6146L51.5108 2.52412ZM54.5541 6.47112L52.1447 0.403763L33.5567 7.78509L35.966 13.8524L54.5541 6.47112ZM52.2003 0.546954C51.415 -1.52271 50.0187 -3.30455 48.1968 -4.56192L36.8368 11.8986C35.3188 10.851 34.1554 9.36634 33.5011 7.6419L52.2003 0.546954ZM48.1968 -4.56192C46.3749 -5.81929 44.2136 -6.49268 42 -6.49268L42 13.5073C40.1556 13.5073 38.3548 12.9463 36.8368 11.8986L48.1968 -4.56192ZM42 -6.49268C39.7864 -6.49268 37.6251 -5.81929 35.8032 -4.56192L47.1632 11.8986C45.6452 12.9463 43.8444 13.5073 42 13.5073V-6.49268ZM35.8032 -4.56192C33.9813 -3.30457 32.585 -1.52274 31.7997 0.546954L50.4989 7.6419C49.8446 9.36636 48.6812 10.851 47.1632 11.8986L35.8032 -4.56192ZM31.8553 0.403763L29.4459 6.47112L48.034 13.8524L50.4433 7.78509L31.8553 0.403763ZM29.4177 6.54308C30.0401 4.93951 31.1053 3.54576 32.4893 2.52412L44.3677 18.6146C46.0323 17.3857 47.3135 15.7093 48.0622 13.7805L29.4177 6.54308ZM32.4893 2.52412C33.8732 1.50248 35.5188 0.895011 37.2346 0.772429L38.6598 20.7216C40.7236 20.5741 42.703 19.8435 44.3677 18.6146L32.4893 2.52412ZM37.2996 0.767999L30.8395 1.18726L32.1347 21.1453L38.5949 20.726L37.2996 0.767999ZM30.8395 1.18726C20.5153 1.85731 17.3379 14.5074 24.5693 20.5262L37.3637 5.15412C43.2951 10.0909 40.7888 20.5836 32.1347 21.1453L30.8395 1.18726ZM24.5693 20.5262L29.516 24.6435L42.3105 9.27137L37.3637 5.15412L24.5693 20.5262ZM29.4682 24.6034C28.1668 23.5065 27.2015 22.0645 26.6832 20.4432L45.7334 14.353C45.1052 12.3883 43.9354 10.6408 42.3583 9.31142L29.4682 24.6034ZM26.6832 20.4432C26.1649 18.822 26.1147 17.0874 26.5384 15.439L45.9088 20.4175C46.4223 18.4198 46.3615 16.3177 45.7334 14.353L26.6832 20.4432ZM26.5319 15.4645L25.0538 21.2789L44.4373 26.2064L45.9154 20.392L26.5319 15.4645ZM25.0538 21.2789C22.7677 30.2718 32.597 39.2334 41.7431 33.4389L31.0393 16.5442C38.493 11.8219 46.2212 19.1889 44.4373 26.2064L25.0538 21.2789ZM41.7431 33.4389L46.8694 30.191L36.1657 13.2964L31.0393 16.5442L41.7431 33.4389ZM46.8875 30.1795C45.4269 31.1093 43.7314 31.6032 42 31.6032L42 11.6032C39.9267 11.6032 37.8965 12.1945 36.1476 13.3079L46.8875 30.1795ZM42 31.6032C40.2686 31.6032 38.5731 31.1093 37.1125 30.1795L47.8524 13.3079C46.1035 12.1945 44.0733 11.6032 42 11.6032L42 31.6032Z" fill="#F9DD74" mask="url(#path-3-inside-2_45_7309)"/>
<mask id="path-5-inside-3_45_7309" fill="white">
<path d="M70.4825 21.7437L75.9988 25.2387C76.704 25.6854 77.5794 25.021 77.3702 24.1979L75.7764 17.9282C75.7315 17.7536 75.7368 17.5699 75.7917 17.3981C75.8466 17.2264 75.9489 17.0736 76.0868 16.9574L81.0335 12.8402C81.6835 12.2992 81.348 11.2205 80.5129 11.1663L74.0528 10.747C73.8788 10.7346 73.7119 10.673 73.5716 10.5694C73.4312 10.4658 73.3232 10.3244 73.2601 10.1618L70.8507 4.09442C70.7852 3.92181 70.6688 3.77321 70.5168 3.66835C70.3649 3.56348 70.1846 3.50732 70 3.50732C69.8154 3.50732 69.6351 3.56348 69.4832 3.66835C69.3312 3.77321 69.2148 3.92181 69.1493 4.09442L66.74 10.1618C66.6768 10.3244 66.5688 10.4658 66.4285 10.5694C66.2881 10.673 66.1212 10.7346 65.9472 10.747L59.4871 11.1663C58.652 11.2205 58.3165 12.2992 58.9665 12.8402L63.9132 16.9574C64.0511 17.0736 64.1534 17.2264 64.2083 17.3981C64.2632 17.5699 64.2685 17.7536 64.2236 17.9282L62.7455 23.7426C62.4944 24.7303 63.545 25.5277 64.3912 24.9916L69.5175 21.7437C69.6617 21.6519 69.8291 21.6032 70 21.6032C70.1709 21.6032 70.3383 21.6519 70.4825 21.7437Z"/>
</mask>
<path d="M70.4825 21.7437L75.9988 25.2387C76.704 25.6854 77.5794 25.021 77.3702 24.1979L75.7764 17.9282C75.7315 17.7536 75.7368 17.5699 75.7917 17.3981C75.8466 17.2264 75.9489 17.0736 76.0868 16.9574L81.0335 12.8402C81.6835 12.2992 81.348 11.2205 80.5129 11.1663L74.0528 10.747C73.8788 10.7346 73.7119 10.673 73.5716 10.5694C73.4312 10.4658 73.3232 10.3244 73.2601 10.1618L70.8507 4.09442C70.7852 3.92181 70.6688 3.77321 70.5168 3.66835C70.3649 3.56348 70.1846 3.50732 70 3.50732C69.8154 3.50732 69.6351 3.56348 69.4832 3.66835C69.3312 3.77321 69.2148 3.92181 69.1493 4.09442L66.74 10.1618C66.6768 10.3244 66.5688 10.4658 66.4285 10.5694C66.2881 10.673 66.1212 10.7346 65.9472 10.747L59.4871 11.1663C58.652 11.2205 58.3165 12.2992 58.9665 12.8402L63.9132 16.9574C64.0511 17.0736 64.1534 17.2264 64.2083 17.3981C64.2632 17.5699 64.2685 17.7536 64.2236 17.9282L62.7455 23.7426C62.4944 24.7303 63.545 25.5277 64.3912 24.9916L69.5175 21.7437C69.6617 21.6519 69.8291 21.6032 70 21.6032C70.1709 21.6032 70.3383 21.6519 70.4825 21.7437Z" fill="#F9DD74"/>
<path d="M75.9988 25.2387L70.647 33.686H70.647L75.9988 25.2387ZM77.3702 24.1979L67.6785 26.6616V26.6616L77.3702 24.1979ZM75.7764 17.9282L85.4681 15.4645C85.466 15.456 85.4638 15.4475 85.4616 15.439L75.7764 17.9282ZM76.0868 16.9574L69.6895 9.27137C69.6735 9.28467 69.6576 9.29802 69.6417 9.31142L76.0868 16.9574ZM81.0335 12.8402L87.4307 20.5262L87.4307 20.5262L81.0335 12.8402ZM80.5129 11.1663L81.1605 1.18726L81.1605 1.18726L80.5129 11.1663ZM74.0528 10.747L73.3402 20.7216C73.3618 20.7231 73.3835 20.7246 73.4052 20.726L74.0528 10.747ZM73.2601 10.1618L82.5823 6.54308C82.573 6.51906 82.5636 6.49507 82.5541 6.47112L73.2601 10.1618ZM70.8507 4.09442L61.5011 7.6419C61.5192 7.68977 61.5378 7.7375 61.5567 7.78509L70.8507 4.09442ZM70 3.50732V13.5073V3.50732ZM69.1493 4.09442L78.4433 7.78509C78.4622 7.7375 78.4808 7.68977 78.4989 7.6419L69.1493 4.09442ZM66.74 10.1618L57.4459 6.47112C57.4364 6.49507 57.427 6.51906 57.4177 6.54308L66.74 10.1618ZM65.9472 10.747L66.5949 20.726C66.6165 20.7246 66.6382 20.7231 66.6598 20.7216L65.9472 10.747ZM59.4871 11.1663L58.8395 1.18726L58.8395 1.18726L59.4871 11.1663ZM58.9665 12.8402L52.5693 20.5262L52.5693 20.5262L58.9665 12.8402ZM63.9132 16.9574L70.3583 9.31142C70.3424 9.29802 70.3265 9.28467 70.3105 9.27137L63.9132 16.9574ZM64.2236 17.9282L54.5384 15.439C54.5362 15.4475 54.534 15.456 54.5319 15.4645L64.2236 17.9282ZM62.7455 23.7426L72.4373 26.2064L72.4373 26.2064L62.7455 23.7426ZM64.3912 24.9916L69.7431 33.4389H69.7431L64.3912 24.9916ZM69.5175 21.7437L74.8694 30.191C74.8755 30.1872 74.8815 30.1834 74.8875 30.1795L69.5175 21.7437ZM70 21.6032V31.6032V21.6032ZM70.4825 21.7437L65.1125 30.1795C65.1185 30.1834 65.1245 30.1872 65.1306 30.191L70.4825 21.7437ZM65.1306 30.191L70.647 33.686L81.3507 16.7913L75.8343 13.2964L65.1306 30.191ZM70.647 33.686C79.652 39.3912 89.3062 30.5624 87.062 21.7341L67.6785 26.6616C65.8527 19.4795 73.756 11.9796 81.3507 16.7913L70.647 33.686ZM87.062 21.7341L85.4681 15.4645L66.0847 20.392L67.6785 26.6616L87.062 21.7341ZM85.4616 15.439C85.8853 17.0874 85.8351 18.822 85.3168 20.4432L66.2666 14.353C65.6385 16.3177 65.5777 18.4198 66.0912 20.4175L85.4616 15.439ZM85.3168 20.4432C84.7985 22.0645 83.8332 23.5065 82.5318 24.6034L69.6417 9.31142C68.0646 10.6408 66.8948 12.3883 66.2666 14.353L85.3168 20.4432ZM82.484 24.6435L87.4307 20.5262L74.6363 5.15412L69.6895 9.27137L82.484 24.6435ZM87.4307 20.5262C94.6621 14.5074 91.4847 1.85731 81.1605 1.18726L79.8653 21.1453C71.2113 20.5836 68.7049 10.0909 74.6363 5.15412L87.4307 20.5262ZM81.1605 1.18726L74.7004 0.767999L73.4052 20.726L79.8653 21.1453L81.1605 1.18726ZM74.7654 0.772429C76.4812 0.895012 78.1269 1.50249 79.5108 2.52412L67.6324 18.6146C69.2969 19.8434 71.2764 20.5741 73.3402 20.7216L74.7654 0.772429ZM79.5108 2.52412C80.8946 3.54574 81.9599 4.93948 82.5823 6.54308L63.9378 13.7805C64.6865 15.7093 65.9678 17.3858 67.6324 18.6146L79.5108 2.52412ZM82.5541 6.47112L80.1447 0.403763L61.5567 7.78509L63.966 13.8524L82.5541 6.47112ZM80.2003 0.546954C79.415 -1.52271 78.0187 -3.30455 76.1968 -4.56192L64.8368 11.8986C63.3188 10.851 62.1554 9.36634 61.5011 7.6419L80.2003 0.546954ZM76.1968 -4.56192C74.3749 -5.81929 72.2136 -6.49268 70 -6.49268L70 13.5073C68.1556 13.5073 66.3548 12.9463 64.8368 11.8986L76.1968 -4.56192ZM70 -6.49268C67.7864 -6.49268 65.6251 -5.81929 63.8032 -4.56192L75.1632 11.8986C73.6452 12.9463 71.8444 13.5073 70 13.5073V-6.49268ZM63.8032 -4.56192C61.9813 -3.30457 60.585 -1.52274 59.7997 0.546954L78.4989 7.6419C77.8446 9.36636 76.6812 10.851 75.1632 11.8986L63.8032 -4.56192ZM59.8553 0.403763L57.4459 6.47112L76.034 13.8524L78.4433 7.78509L59.8553 0.403763ZM57.4177 6.54308C58.0401 4.93951 59.1053 3.54576 60.4893 2.52412L72.3677 18.6146C74.0323 17.3857 75.3135 15.7093 76.0622 13.7805L57.4177 6.54308ZM60.4893 2.52412C61.8732 1.50248 63.5188 0.895011 65.2346 0.772429L66.6598 20.7216C68.7236 20.5741 70.703 19.8435 72.3677 18.6146L60.4893 2.52412ZM65.2996 0.767999L58.8395 1.18726L60.1347 21.1453L66.5949 20.726L65.2996 0.767999ZM58.8395 1.18726C48.5153 1.85731 45.3379 14.5074 52.5693 20.5262L65.3637 5.15412C71.2951 10.0909 68.7888 20.5836 60.1347 21.1453L58.8395 1.18726ZM52.5693 20.5262L57.516 24.6435L70.3105 9.27137L65.3637 5.15412L52.5693 20.5262ZM57.4682 24.6034C56.1668 23.5065 55.2015 22.0645 54.6832 20.4432L73.7334 14.353C73.1052 12.3883 71.9354 10.6408 70.3583 9.31142L57.4682 24.6034ZM54.6832 20.4432C54.1649 18.822 54.1147 17.0874 54.5384 15.439L73.9088 20.4175C74.4223 18.4198 74.3615 16.3177 73.7334 14.353L54.6832 20.4432ZM54.5319 15.4645L53.0538 21.2789L72.4373 26.2064L73.9154 20.392L54.5319 15.4645ZM53.0538 21.2789C50.7677 30.2718 60.597 39.2334 69.7431 33.4389L59.0393 16.5442C66.493 11.8219 74.2212 19.1889 72.4373 26.2064L53.0538 21.2789ZM69.7431 33.4389L74.8694 30.191L64.1657 13.2964L59.0393 16.5442L69.7431 33.4389ZM74.8875 30.1795C73.4269 31.1093 71.7314 31.6032 70 31.6032L70 11.6032C67.9267 11.6032 65.8965 12.1945 64.1476 13.3079L74.8875 30.1795ZM70 31.6032C68.2686 31.6032 66.5731 31.1093 65.1125 30.1795L75.8524 13.3079C74.1035 12.1945 72.0733 11.6032 70 11.6032L70 31.6032Z" fill="#F9DD74" mask="url(#path-5-inside-3_45_7309)"/>
<mask id="path-7-inside-4_45_7309" fill="white">
<path d="M98.4825 21.7437L103.999 25.2387C104.704 25.6854 105.579 25.021 105.37 24.1979L103.776 17.9282C103.732 17.7536 103.737 17.5699 103.792 17.3981C103.847 17.2264 103.949 17.0736 104.087 16.9574L109.033 12.8402C109.683 12.2992 109.348 11.2205 108.513 11.1663L102.053 10.747C101.879 10.7346 101.712 10.673 101.572 10.5694C101.431 10.4658 101.323 10.3244 101.26 10.1618L98.8507 4.09442C98.7852 3.92181 98.6688 3.77321 98.5168 3.66835C98.3649 3.56348 98.1846 3.50732 98 3.50732C97.8154 3.50732 97.6351 3.56348 97.4832 3.66835C97.3312 3.77321 97.2148 3.92181 97.1493 4.09442L94.74 10.1618C94.6768 10.3244 94.5688 10.4658 94.4285 10.5694C94.2881 10.673 94.1212 10.7346 93.9472 10.747L87.4871 11.1663C86.652 11.2205 86.3165 12.2992 86.9665 12.8402L91.9132 16.9574C92.0511 17.0736 92.1534 17.2264 92.2083 17.3981C92.2632 17.5699 92.2685 17.7536 92.2236 17.9282L90.7455 23.7426C90.4944 24.7303 91.545 25.5277 92.3912 24.9916L97.5175 21.7437C97.6617 21.6519 97.8291 21.6032 98 21.6032C98.1709 21.6032 98.3383 21.6519 98.4825 21.7437Z"/>
</mask>
<path d="M98.4825 21.7437L103.999 25.2387C104.704 25.6854 105.579 25.021 105.37 24.1979L103.776 17.9282C103.732 17.7536 103.737 17.5699 103.792 17.3981C103.847 17.2264 103.949 17.0736 104.087 16.9574L109.033 12.8402C109.683 12.2992 109.348 11.2205 108.513 11.1663L102.053 10.747C101.879 10.7346 101.712 10.673 101.572 10.5694C101.431 10.4658 101.323 10.3244 101.26 10.1618L98.8507 4.09442C98.7852 3.92181 98.6688 3.77321 98.5168 3.66835C98.3649 3.56348 98.1846 3.50732 98 3.50732C97.8154 3.50732 97.6351 3.56348 97.4832 3.66835C97.3312 3.77321 97.2148 3.92181 97.1493 4.09442L94.74 10.1618C94.6768 10.3244 94.5688 10.4658 94.4285 10.5694C94.2881 10.673 94.1212 10.7346 93.9472 10.747L87.4871 11.1663C86.652 11.2205 86.3165 12.2992 86.9665 12.8402L91.9132 16.9574C92.0511 17.0736 92.1534 17.2264 92.2083 17.3981C92.2632 17.5699 92.2685 17.7536 92.2236 17.9282L90.7455 23.7426C90.4944 24.7303 91.545 25.5277 92.3912 24.9916L97.5175 21.7437C97.6617 21.6519 97.8291 21.6032 98 21.6032C98.1709 21.6032 98.3383 21.6519 98.4825 21.7437Z" fill="#F9DD74"/>
<path d="M103.999 25.2387L98.647 33.686H98.647L103.999 25.2387ZM105.37 24.1979L95.6785 26.6616V26.6616L105.37 24.1979ZM103.776 17.9282L113.468 15.4645C113.466 15.456 113.464 15.4475 113.462 15.439L103.776 17.9282ZM104.087 16.9574L97.6895 9.27137C97.6735 9.28467 97.6576 9.29802 97.6417 9.31142L104.087 16.9574ZM109.033 12.8402L115.431 20.5262L115.431 20.5262L109.033 12.8402ZM108.513 11.1663L109.161 1.18726L109.161 1.18726L108.513 11.1663ZM102.053 10.747L101.34 20.7216C101.362 20.7231 101.383 20.7246 101.405 20.726L102.053 10.747ZM101.26 10.1618L110.582 6.54308C110.573 6.51906 110.564 6.49507 110.554 6.47112L101.26 10.1618ZM98.8507 4.09442L89.5011 7.6419C89.5192 7.68977 89.5378 7.7375 89.5567 7.78509L98.8507 4.09442ZM98 3.50732V13.5073V3.50732ZM97.1493 4.09442L106.443 7.78509C106.462 7.7375 106.481 7.68977 106.499 7.6419L97.1493 4.09442ZM94.74 10.1618L85.4459 6.47112C85.4364 6.49507 85.427 6.51906 85.4177 6.54308L94.74 10.1618ZM93.9472 10.747L94.5949 20.726C94.6165 20.7246 94.6382 20.7231 94.6598 20.7216L93.9472 10.747ZM87.4871 11.1663L86.8395 1.18726L86.8395 1.18726L87.4871 11.1663ZM86.9665 12.8402L80.5693 20.5262L80.5693 20.5262L86.9665 12.8402ZM91.9132 16.9574L98.3583 9.31142C98.3424 9.29802 98.3265 9.28467 98.3105 9.27137L91.9132 16.9574ZM92.2236 17.9282L82.5384 15.439C82.5362 15.4475 82.534 15.456 82.5319 15.4645L92.2236 17.9282ZM90.7455 23.7426L100.437 26.2064L100.437 26.2064L90.7455 23.7426ZM92.3912 24.9916L97.7431 33.4389H97.7431L92.3912 24.9916ZM97.5175 21.7437L102.869 30.191C102.875 30.1872 102.881 30.1834 102.888 30.1795L97.5175 21.7437ZM98 21.6032V31.6032V21.6032ZM98.4825 21.7437L93.1125 30.1795C93.1185 30.1834 93.1245 30.1872 93.1306 30.191L98.4825 21.7437ZM93.1306 30.191L98.647 33.686L109.351 16.7913L103.834 13.2964L93.1306 30.191ZM98.647 33.686C107.652 39.3912 117.306 30.5624 115.062 21.7341L95.6785 26.6616C93.8527 19.4795 101.756 11.9796 109.351 16.7913L98.647 33.686ZM115.062 21.7341L113.468 15.4645L94.0847 20.392L95.6785 26.6616L115.062 21.7341ZM113.462 15.439C113.885 17.0874 113.835 18.822 113.317 20.4432L94.2666 14.353C93.6385 16.3177 93.5777 18.4198 94.0912 20.4175L113.462 15.439ZM113.317 20.4432C112.799 22.0645 111.833 23.5065 110.532 24.6034L97.6417 9.31142C96.0646 10.6408 94.8948 12.3883 94.2666 14.353L113.317 20.4432ZM110.484 24.6435L115.431 20.5262L102.636 5.15412L97.6895 9.27137L110.484 24.6435ZM115.431 20.5262C122.662 14.5074 119.485 1.85731 109.161 1.18726L107.865 21.1453C99.2113 20.5836 96.7049 10.0909 102.636 5.15412L115.431 20.5262ZM109.161 1.18726L102.7 0.767999L101.405 20.726L107.865 21.1453L109.161 1.18726ZM102.765 0.772429C104.481 0.895012 106.127 1.50249 107.511 2.52412L95.6324 18.6146C97.2969 19.8434 99.2764 20.5741 101.34 20.7216L102.765 0.772429ZM107.511 2.52412C108.895 3.54574 109.96 4.93948 110.582 6.54308L91.9378 13.7805C92.6865 15.7093 93.9678 17.3858 95.6324 18.6146L107.511 2.52412ZM110.554 6.47112L108.145 0.403763L89.5567 7.78509L91.966 13.8524L110.554 6.47112ZM108.2 0.546954C107.415 -1.52271 106.019 -3.30455 104.197 -4.56192L92.8368 11.8986C91.3188 10.851 90.1554 9.36634 89.5011 7.6419L108.2 0.546954ZM104.197 -4.56192C102.375 -5.81929 100.214 -6.49268 98 -6.49268L98 13.5073C96.1556 13.5073 94.3548 12.9463 92.8368 11.8986L104.197 -4.56192ZM98 -6.49268C95.7864 -6.49268 93.6251 -5.81929 91.8032 -4.56192L103.163 11.8986C101.645 12.9463 99.8444 13.5073 98 13.5073V-6.49268ZM91.8032 -4.56192C89.9813 -3.30457 88.585 -1.52274 87.7997 0.546954L106.499 7.6419C105.845 9.36636 104.681 10.851 103.163 11.8986L91.8032 -4.56192ZM87.8553 0.403763L85.4459 6.47112L104.034 13.8524L106.443 7.78509L87.8553 0.403763ZM85.4177 6.54308C86.0401 4.93951 87.1053 3.54576 88.4893 2.52412L100.368 18.6146C102.032 17.3857 103.314 15.7093 104.062 13.7805L85.4177 6.54308ZM88.4893 2.52412C89.8732 1.50248 91.5188 0.895011 93.2346 0.772429L94.6598 20.7216C96.7236 20.5741 98.703 19.8435 100.368 18.6146L88.4893 2.52412ZM93.2996 0.767999L86.8395 1.18726L88.1347 21.1453L94.5949 20.726L93.2996 0.767999ZM86.8395 1.18726C76.5153 1.85731 73.3379 14.5074 80.5693 20.5262L93.3637 5.15412C99.2951 10.0909 96.7888 20.5836 88.1347 21.1453L86.8395 1.18726ZM80.5693 20.5262L85.516 24.6435L98.3105 9.27137L93.3637 5.15412L80.5693 20.5262ZM85.4682 24.6034C84.1668 23.5065 83.2015 22.0645 82.6832 20.4432L101.733 14.353C101.105 12.3883 99.9354 10.6408 98.3583 9.31142L85.4682 24.6034ZM82.6832 20.4432C82.1649 18.822 82.1147 17.0874 82.5384 15.439L101.909 20.4175C102.422 18.4198 102.361 16.3177 101.733 14.353L82.6832 20.4432ZM82.5319 15.4645L81.0538 21.2789L100.437 26.2064L101.915 20.392L82.5319 15.4645ZM81.0538 21.2789C78.7677 30.2718 88.597 39.2334 97.7431 33.4389L87.0393 16.5442C94.493 11.8219 102.221 19.1889 100.437 26.2064L81.0538 21.2789ZM97.7431 33.4389L102.869 30.191L92.1657 13.2964L87.0393 16.5442L97.7431 33.4389ZM102.888 30.1795C101.427 31.1093 99.7314 31.6032 98 31.6032L98 11.6032C95.9267 11.6032 93.8965 12.1945 92.1476 13.3079L102.888 30.1795ZM98 31.6032C96.2686 31.6032 94.5731 31.1093 93.1125 30.1795L103.852 13.3079C102.103 12.1945 100.073 11.6032 98 11.6032L98 31.6032Z" fill="#F9DD74" mask="url(#path-7-inside-4_45_7309)"/>
<path d="M140 0.882324H112V28.8823H140V0.882324Z" fill="white"/>
<path d="M126.482 21.7437L131.999 25.2387C132.704 25.6854 133.579 25.021 133.37 24.1979L131.776 17.9282C131.732 17.7536 131.737 17.5699 131.792 17.3981C131.847 17.2264 131.949 17.0736 132.087 16.9574L137.033 12.8402C137.683 12.2992 137.348 11.2205 136.513 11.1663L130.053 10.747C129.879 10.7346 129.712 10.673 129.572 10.5694C129.431 10.4658 129.323 10.3244 129.26 10.1618L126.851 4.09442C126.785 3.92181 126.669 3.77321 126.517 3.66835C126.365 3.56348 126.185 3.50732 126 3.50732C125.815 3.50732 125.635 3.56348 125.483 3.66835C125.331 3.77321 125.215 3.92181 125.149 4.09442L122.74 10.1618C122.677 10.3244 122.569 10.4658 122.428 10.5694C122.288 10.673 122.121 10.7346 121.947 10.747L115.487 11.1663C114.652 11.2205 114.317 12.2992 114.967 12.8402L119.913 16.9574C120.051 17.0736 120.153 17.2264 120.208 17.3981C120.263 17.5699 120.268 17.7536 120.224 17.9282L118.746 23.7426C118.494 24.7303 119.545 25.5277 120.391 24.9916L125.518 21.7437C125.662 21.6519 125.829 21.6032 126 21.6032C126.171 21.6032 126.338 21.6519 126.482 21.7437Z" fill="#F9DD74"/>
</svg>
