<svg width="22" height="16" viewBox="0 0 22 16" fill="none" xmlns="http://www.w3.org/2000/svg">
<path d="M12.8163 14.0062C12.5163 14.2919 12.5047 14.7666 12.7904 15.0666C13.0761 15.3665 13.5508 15.3781 13.8507 15.0924L12.8163 14.0062ZM20.8507 8.42575C21.1507 8.14009 21.1623 7.66536 20.8766 7.36541C20.5909 7.06546 20.1162 7.05388 19.8163 7.33955L20.8507 8.42575ZM19.8163 8.42575C20.1162 8.71142 20.5909 8.69984 20.8766 8.39989C21.1623 8.09994 21.1507 7.62521 20.8507 7.33955L19.8163 8.42575ZM13.8507 0.672879C13.5508 0.387216 13.0761 0.398794 12.7904 0.698742C12.5047 0.99869 12.5163 1.47342 12.8163 1.75909L13.8507 0.672879ZM20.3335 8.63265C20.7477 8.63265 21.0835 8.29686 21.0835 7.88265C21.0835 7.46844 20.7477 7.13265 20.3335 7.13265V8.63265ZM1.66683 7.13265C1.25262 7.13265 0.91683 7.46844 0.91683 7.88265C0.91683 8.29686 1.25262 8.63265 1.66683 8.63265V7.13265ZM13.8507 15.0924L20.8507 8.42575L19.8163 7.33955L12.8163 14.0062L13.8507 15.0924ZM20.8507 7.33955L13.8507 0.672879L12.8163 1.75909L19.8163 8.42575L20.8507 7.33955ZM20.3335 7.13265L1.66683 7.13265V8.63265L20.3335 8.63265V7.13265Z" fill="black"/>
</svg>
